<svg width="12" height="12" viewBox="0 0 12 12" fill="none" xmlns="http://www.w3.org/2000/svg">
<path d="M4.71328 6.8595e-08C5.60928 -0.000152748 6.48676 0.255031 7.24293 0.735657C7.9991 1.21628 8.60264 1.90244 8.98285 2.71375C9.36306 3.52506 9.50418 4.42792 9.38969 5.31655C9.2752 6.20519 8.90983 7.04279 8.3364 7.73124L11.8738 11.2677C11.9497 11.3433 11.9946 11.4446 11.9995 11.5516C12.0045 11.6586 11.9692 11.7636 11.9006 11.8459C11.8319 11.9282 11.735 11.9818 11.6288 11.9961C11.5226 12.0105 11.4149 11.9845 11.3269 11.9234L11.2669 11.8746L7.7304 8.33722C7.14858 8.82157 6.45866 9.15868 5.719 9.32002C4.97935 9.48137 4.21172 9.46222 3.48103 9.26418C2.75034 9.06615 2.0781 8.69506 1.52115 8.18229C0.964207 7.66953 0.538944 7.03018 0.281333 6.31832C0.0237224 5.60647 -0.0586589 4.84304 0.0411573 4.09261C0.140973 3.34218 0.420051 2.62683 0.854785 2.00706C1.28952 1.38729 1.86712 0.881332 2.53874 0.531979C3.21036 0.182626 3.95623 0.000155137 4.71328 6.8595e-08V6.8595e-08ZM4.71328 0.857122C3.69031 0.857122 2.70924 1.26349 1.98589 1.98683C1.26254 2.71016 0.856171 3.69122 0.856171 4.71417C0.856171 5.73712 1.26254 6.71818 1.98589 7.44151C2.70924 8.16485 3.69031 8.57122 4.71328 8.57122C5.73625 8.57122 6.71732 8.16485 7.44067 7.44151C8.16402 6.71818 8.5704 5.73712 8.5704 4.71417C8.5704 3.69122 8.16402 2.71016 7.44067 1.98683C6.71732 1.26349 5.73625 0.857122 4.71328 0.857122Z" fill="white"/>
</svg>
